<svg xmlns="http://www.w3.org/2000/svg" viewBox="0 0 24 24"><path d="M20.305 5.057c0.242 0.082 0.439 0.244 0.564 0.454l0.003 0.005c0.091 0.156 0.108 0.23 0.108 0.484 0 0.256-0.016 0.328-0.111 0.489-0.125 0.213-0.318 0.375-0.539 0.454-0.223 0.079-16.437 0.079-16.66 0-0.221-0.079-0.414-0.241-0.539-0.454-0.095-0.161-0.111-0.233-0.111-0.489 0-0.254 0.017-0.328 0.108-0.484 0.13-0.219 0.333-0.383 0.575-0.459l0.007-0.002c0.263-0.079 16.343-0.077 16.595 0.002zM20.305 11.057c0.242 0.082 0.439 0.244 0.564 0.454l0.003 0.005c0.091 0.156 0.108 0.23 0.108 0.484 0 0.256-0.016 0.328-0.111 0.489-0.125 0.213-0.318 0.375-0.539 0.454-0.223 0.079-16.437 0.079-16.66 0-0.221-0.079-0.414-0.241-0.539-0.454-0.095-0.161-0.111-0.233-0.111-0.489 0-0.254 0.017-0.328 0.108-0.484 0.13-0.219 0.333-0.383 0.575-0.459l0.007-0.002c0.263-0.079 16.343-0.077 16.595 0.002zM20.305 17.057c0.242 0.082 0.439 0.244 0.564 0.454l0.003 0.005c0.091 0.156 0.108 0.23 0.108 0.484 0 0.256-0.016 0.328-0.111 0.489-0.125 0.213-0.318 0.375-0.539 0.454s-7.439 0.079-7.66 0c-0.221-0.079-0.414-0.241-0.539-0.454-0.095-0.161-0.111-0.233-0.111-0.489 0-0.254 0.017-0.328 0.108-0.484 0.13-0.219 0.333-0.383 0.575-0.459l0.007-0.002c0.26-0.078 7.345-0.076 7.595 0.002z"></path></svg>