<svg xmlns="http://www.w3.org/2000/svg" width="130" height="129.45833333333334" viewBox="0 0 899.99 898.06" fill="currentcolor">
  <path d="m315.87 430.81-4.44 75.17 46.76-12.53-41.44-62.88-.88.24z"></path>
  <path d="m844 476 56-33.47-20.87-11.61-100.78 27-46.23-172.43 30.77-8.24 38.75 144.63L843 410.8l49.75-42.21-61.42-22 42.22-49.75-64.21-11.63 33.41-56.05-65.24-.83 23.65-60.8-64.48 10L750 113.6 688 134l2.67-65.19-57.79 30.3-8-64.75-52 39.36-18.67-62.54-44.82 47.42L480.69 0l-36.33 54.19-38-53-26.94 59.39-46.13-46.15-16.91 63-53.07-37.93-6.26 64.94-58.63-28.62 4.6 65.09-62.56-18.55 15.25 63.44-64.75-8 25.44 60.09-65.2 2.69 34.94 55.1L22.27 309l43.54 48.61L5 381.34l51 40.72-56 33.47 57 31.72-49.73 42.22 61.42 22-42.21 49.77 64.2 11.63-33.41 56 65.25.82-23.66 60.86 64.48-10L150 784.46 212 764l-2.67 65.19L267.11 799l8 64.75 52-39.36 18.59 62.54 44.82-47.42 28.7 58.6 36.33-54.2 38 53 26.94-59.43 46.13 46.15 16.91-63 53.08 37.95 6.25-64.95 58.63 28.63-4.49-65.11 62.56 18.55-15.25-63.45 64.75 8-25.44-60.09 65.2-2.69-34.94-55.1L877.72 589l-43.53-48.6L895 516.72ZM234.36 603.68l-35.57-132.74-3.88 143.31-26.69 7.15-75-122.17L128.78 632 98 640.22 51.8 467.78l46.67-12.5 70.12 114.12 3.66-133.89L218.92 423l46.21 172.44Zm167-44.74L375 519l-65.36 17.52-2.82 47.79-30.82 8.22 13.54-188.44 36.69-9.84 106 156.43Zm141.52-192.73 38.7 144.44-30.77 8.24-38.7-144.44-63 16.88 38.7 144.44-30.76 8.23-38.7-144.43L369 412.81l-7.5-28L584.77 325l7.51 28Zm103.55 127.06-46.21-172.44 110.59-29.63 7.5 28-79.82 21.39 11 41.07L722.81 362l7.45 27.81L657 409.47 669.69 457 751 435.23l7.5 28Z"></path>
  <path d="m584.77 324.97-223.32 59.84 7.5 28 49.4-13.24 38.7 144.44 30.77-8.24-38.7-144.44 62.99-16.88 38.7 144.44 30.77-8.25-38.7-144.43 49.4-13.24-7.51-28zM172.25 435.51l-3.66 133.89-70.12-114.12-46.67 12.5L98 640.22l30.78-8.25-35.57-132.74 75.01 122.17 26.69-7.15 3.88-143.31 35.57 132.74 30.77-8.24L218.93 423l-46.68 12.51zM751.04 435.23l-81.35 21.79-12.74-47.55 73.31-19.64-7.45-27.81-73.31 19.65-11-41.08 79.81-21.39-7.5-28-110.59 29.63 46.21 172.44 112.11-30.04-7.5-28zM326.21 394.25l-36.69 9.84L276 592.53l30.83-8.26 2.82-47.79L375 519l26.34 40 30.83-8.26ZM311.43 506l4.44-75.17.88-.24 41.44 62.88ZM801.64 421.88l-38.75-144.63-30.77 8.24 46.21 172.44 100.79-27.01-36.15-20.11v-.01l-41.33 11.08z" fill="transparent"></path>
  <path d="M790.53 763.52h-2.95v-17.93h6.8a8.23 8.23 0 0 1 4.89 1.21 4.57 4.57 0 0 1 1.65 3.94 4.39 4.39 0 0 1-1.34 3.55 6.16 6.16 0 0 1-3.34 1.35l5 7.88h-3.34l-4.63-7.67h-2.77Zm3.29-10.18c.55 0 1.07 0 1.58-.06a3.57 3.57 0 0 0 1.32-.37 2.39 2.39 0 0 0 .91-.85 2.84 2.84 0 0 0 .34-1.53 2.11 2.11 0 0 0-.36-1.3 2.59 2.59 0 0 0-.93-.74 3.89 3.89 0 0 0-1.26-.32 12.41 12.41 0 0 0-1.34-.07h-3.55v5.24Z"></path>
  <path d="M793.77 770.88a16.33 16.33 0 1 1 16.33-16.33 16.35 16.35 0 0 1-16.33 16.33Zm0-29.8a13.48 13.48 0 1 0 13.48 13.47 13.48 13.48 0 0 0-13.48-13.47Z"></path>
</svg>