  <svg width="130" height="44" viewBox="0 0 130 44" fill="currentcolor" xmlns="http://www.w3.org/2000/svg">
    <path d="M22.5 14.2l2.8-4.8a3 3 0 0 0-5.1-2.9l-2.8 4.8A13.4 13.4 0 0 0 .8 28.5l5-8.8a8.7 8.7 0 0 1 5.4-4A8.8 8.8 0 0 1 21 28.4a8.8 8.8 0 0 1-12 3.2l3-5a3 3 0 1 0-1.1-4l-9.3 16a3 3 0 0 0 5 3l2.8-4.8a13.4 13.4 0 0 0 13.1-22.7zM39.3 24c1.3 0 2.1-.6 2.1-2 0-1.5-.8-2-2.1-2h-1.8v4h1.8zm-4.4-6.3h4.5c2.6 0 4.8 1.3 4.8 4.3s-2.2 4.3-4.8 4.3h-1.9v4.2h-2.6V17.7zm13.2 0h8.4V20h-5.8v3h5.1v2.2h-5.1v3h6.1v2.3H48V17.7zm13.2 0h2.6v10.5h5.8v2.3h-8.4V17.7zm22 6.4c0-2.4-1.6-4.2-4-4.2-2.3 0-3.9 1.8-3.9 4.2 0 2.4 1.6 4.2 4 4.2 2.3 0 3.9-1.8 3.9-4.2zm-10.6 0c0-3.8 3-6.6 6.6-6.6a6.5 6.5 0 0 1 6.7 6.6c0 3.8-3 6.6-6.7 6.6s-6.6-2.8-6.6-6.6zM92.5 20h-3.7v-2.3h10V20h-3.6v10.5h-2.7V20zm19.7 4.1c0-2.4-1.6-4.2-3.9-4.2s-4 1.8-4 4.2c0 2.4 1.7 4.2 4 4.2s4-1.8 4-4.2zm-10.5 0c0-3.8 2.9-6.6 6.6-6.6s6.7 2.8 6.7 6.6-3 6.6-6.7 6.6-6.6-2.8-6.6-6.6zm21.3.5l-1.5-1.8.2 2.3v5.4h-2.5v-13h.3l6.5 6.2c.6.5 1.5 1.7 1.5 1.7l-.2-2.3v-5.4h2.5v13h-.3l-6.5-6.2z"/>
  </svg>