<svg xmlns="http://www.w3.org/2000/svg" width="130" height="36.49122807017544" viewBox="0 0 2451 688">
  <path fill="none" d="M2265 689c-407.693 0-815.387 0-1223.394-.392 12.868-1.935 25.73-4.78 38.133-9.608 22.616-8.804 41.14-22.863 55.432-42.543 17.044-23.47 23.29-50.183 23.789-78.602.234-13.328.048-26.663.027-39.995-.002-1.258-.189-2.517-.27-3.52h-133.373v53.94h64.001c-1.324 22.58-10.738 39.802-30.976 49.704-17.969 8.792-37.08 10.1-56.499 5.414-25.383-6.125-41.013-23.129-49.718-46.715-7.667-20.77-9.52-42.386-7.343-64.54 1.247-12.685 3.431-24.963 8.224-36.723 7.184-17.63 18.848-31.555 36.083-39.86 13.964-6.729 28.919-7.923 44.358-5.666 24.322 3.554 40.322 16.827 48.45 39.784.946 2.671 2.176 3.392 4.862 3.38 22.164-.103 44.328-.057 66.492-.064.811 0 1.622-.092 2.8-.162-.73-4.502-1.076-8.859-2.171-13.018-6.762-25.671-20.014-47.432-40.783-64.043-25.81-20.644-56.026-29.824-88.635-30.508-12.957-.272-26.092 1.709-38.943 3.873-26.364 4.44-48.88 16.97-68.26 35.145-15.278 14.327-26.081 31.774-33.973 51.045-7.292 17.808-11.189 36.545-12.097 55.622-.87 18.247-.625 36.546 2.608 54.76 2.751 15.502 7.08 30.367 13.887 44.465 9.047 18.737 21.537 34.856 37.857 47.927 18.214 14.588 38.797 23.827 61.745 27.973 2.652.48 5.129 1.928 7.687 2.927H1c0-162.693 0-325.387.36-488.446 1.116.663 2.259 1.587 2.572 2.737 3.422 12.547 6.724 25.127 10.04 37.703 9.997 37.912 20.086 75.8 29.949 113.747 9.826 37.805 19.292 75.703 29.156 113.497 9.819 37.623 19.907 75.176 30.05 112.713.341 1.264 2.66 2.998 3.874 2.863 9.352-1.04 18.64-2.638 27.984-3.778 14.732-1.797 29.494-3.35 44.237-5.06 2.182-.254 4.101-.865 3.778-3.861-1.383-12.822-2.737-25.647-3.98-38.483-1.09-11.247-2.035-22.507-3.014-33.764-1.35-15.506-2.655-31.016-4.011-46.521-.97-11.091-2.017-22.176-2.987-33.267-1.356-15.505-2.722-31.01-3.993-46.522-1.197-14.615-2.275-29.239-3.397-43.744l24.48-10.802 44.167 250.482 134.774-16.56c-.427-1.702-.902-2.904-1.012-4.139-1.373-15.337-2.692-30.679-4.026-46.02l-4-46.02c-1.333-15.34-2.73-30.676-3.98-46.024-1.093-13.414-2.018-26.842-3.023-40.264-.331-4.419-.601-8.844-1.036-13.253-1.284-13.012-2.747-26.006-3.925-39.027-.858-9.486-.433-19.2-2.367-28.44-1.335-6.382.435-8.714 5.772-10.678 6.075-2.235 11.95-5.014 17.954-7.574l48.551 275.412c4.293-.388 7.87-.603 11.416-1.054 9.68-1.231 19.339-2.647 29.026-3.828 9.235-1.127 18.512-1.917 27.74-3.093 11.934-1.52 23.82-3.4 35.756-4.893 9.559-1.197 19.165-2.009 28.74-3.078 2.733-.305 3.823-1.942 3.382-4.752-.755-4.814-1.523-9.637-1.973-14.485-1.422-15.332-2.691-30.679-4.035-46.018-.987-11.257-2.014-22.51-2.993-33.767-1.35-15.506-2.655-31.015-4.011-46.52-.97-11.092-2.022-22.176-2.986-33.268-1.361-15.671-2.73-31.342-3.989-47.022-.776-9.662-1.275-19.345-2.055-29.006-.393-4.871-1.266-9.703-1.69-14.572-.823-9.438-1.482-18.89-2.202-28.251l24.55-10.904 53.216 301.418c3.554-.36 5.797-.57 8.035-.817 9.083-1.004 18.178-1.911 27.243-3.061 9.35-1.187 18.652-2.748 28.006-3.899 9.562-1.176 19.18-1.901 28.739-3.1 11.935-1.498 23.795-3.834 35.768-4.687 5.465-.39 6.476-1.884 6.471-6.912-.127-134.33-.096-268.66-.123-402.99 0-4.787 1.348-10.779-.982-14.006-2.15-2.978-8.365-3.168-12.864-4.282-55.437-13.731-110.914-27.3-166.326-41.128-46.031-11.488-91.985-23.283-137.996-34.85-2.01-.506-4.494-.733-6.335-.012-7.014 2.746-13.91 5.816-20.75 8.982-18.367 8.501-36.658 17.166-55.022 25.672-27.097 12.55-54.237 25.006-81.347 37.528-17.495 8.08-34.966 16.21-52.452 24.31-28.408 13.16-56.836 26.277-85.221 39.487-11.655 5.423-23.177 11.132-34.834 16.552C54.923 168.119 27.953 180.54 1 193V1c471.694 0 943.387 0 1415.404.385-1.565.794-3.434 1.348-5.343 1.59-13.68 1.743-26.746 5.676-39.119 11.637-17.108 8.241-32.938 18.437-44.653 33.741-6.853 8.954-13.672 18.094-19.153 27.906-13.742 24.599-17.94 51.796-18.957 79.469-.416 11.291 1.122 22.658 1.825 33.987.877 14.126 4.358 27.69 9.005 40.992 6.766 19.367 17.477 36.361 31.494 51.219 13.084 13.869 28.724 24.143 46.327 31.453 13.801 5.732 28.229 9.177 43.03 10.467 9.43.822 19.01.541 28.483.037 8.265-.44 16.607-1.272 24.688-2.994 27.551-5.87 51.704-18.49 71.264-38.876 11.331-11.81 20.132-25.493 27.011-40.523 8.955-19.565 13.423-40.184 14.456-61.358.93-19.06 1.01-38.224-2.629-57.23-2.554-13.341-5.941-26.368-11.561-38.673-9.399-20.578-22.595-38.339-40.379-52.596-15.31-12.275-32.496-20.65-51.398-25.611C1473.9 4.212 1466.934 2.666 1460 1h992c0 126.36 0 252.72-.223 379.526-.223.445-.668.426-.72.067-.475-1.026-.872-1.712-1.324-2.359-5.361-7.675-12.485-10.51-20.282-8.08-7.239 2.255-11.7 9.357-11.44 18.42.342 11.874 12.958 16.993 21.059 15.01 6.214-1.52 9.119-6.464 12.93-10.584v296c-44.693 0-89.387 0-134.393-.393 6.079-1.461 12.504-2.356 18.854-3.63 24.72-4.957 46.936-14.904 62.856-35.147 6.067-7.713 11.279-16.753 14.344-26.026 5.27-15.942 5.66-32.534 2.487-49.316-3.756-19.875-14.71-35.094-29.841-47.235-17.334-13.908-38.056-20.983-59.442-26.317-18.845-4.7-37.678-9.525-56.273-15.105-9.6-2.88-17.66-8.727-21.59-18.673-6.32-15.994 3.869-31.223 18.343-37.1 14.785-6.003 30.287-6.743 45.497-2.835 15.558 3.998 27.979 12.173 31.133 32.222.5 3.185 2.306 3.627 5.138 3.612 20.496-.107 40.993-.052 61.49-.07 1.111-.002 2.222-.203 3.795-.357-.825-5.933-1.688-11.566-2.38-17.22-1.987-16.228-9.218-30.189-19.62-42.327-12.402-14.475-28.301-24.003-46.353-30.163-15.719-5.365-31.978-7.064-48.374-7.821-6.056-.28-12.178.415-18.246.943-6.331.55-12.772.839-18.92 2.282-19.549 4.59-38.156 11.238-53.997 24.404-12.807 10.643-23.075 22.922-28.452 38.789-4.658 13.746-6.122 27.798-4.218 42.374 1.45 11.092 4.327 21.499 10.434 30.791 11.427 17.387 28.47 27.506 47.137 35.292 18.496 7.716 38.203 11.175 57.513 16.005 13.557 3.39 27.143 6.604 39.644 13.187 19.102 10.06 21.74 31.324 7.49 45.426-10.161 10.056-22.858 13.135-36.177 14.267-11.929 1.013-23.795-.326-35.092-4.846-13.419-5.369-23.843-13.695-27.813-28.319-1.211-4.462-2.233-8.976-3.335-13.436h-69.274c.907 7.457 1.711 14.565 2.645 21.656 2.194 16.68 8.53 31.803 19.227 44.617 18.327 21.957 42.85 32.806 70.545 37.708 2.586.457 6.625-1.325 8.218 2.761m-486.958-192.362c4.65-15.35 9.646-30.61 13.745-46.107 1.291-4.88 3.343-4.987 7.41-4.126v238.293h71.507V370c-39.438 0-78.58-.031-117.721.134-1.327.005-3.405 1.738-3.837 3.082-2.062 6.416-3.615 12.994-5.459 19.483-8.596 30.261-17.143 60.537-25.872 90.76-8.772 30.372-17.979 60.62-26.392 91.09-1.465 5.306-3.566 6.116-7.944 5.2-1.8-5.807-3.714-11.574-5.374-17.413-9.878-34.74-19.695-69.497-29.536-104.247-7.872-27.797-15.781-55.585-23.588-83.401-.982-3.499-2.655-4.808-6.518-4.79-36.995.17-73.991.1-110.987.112-1.433 0-2.867.147-4.184.22v314.475h70.879V446.18c9.241-.27 7.203-1.225 9.27 4.848 2.792 8.199 5.115 16.56 7.517 24.887 9.03 31.3 18.032 62.61 27.001 93.928 4.728 16.51 9.326 33.059 14.053 49.57 5.965 20.83 11.95 41.656 18.13 62.423.394 1.323 2.543 3.017 3.889 3.029 21.662.19 43.327.1 64.991.177 2.634.01 3.588-.9 4.244-3.504 1.642-6.529 3.82-12.922 5.747-19.38 10-33.513 20.001-67.025 29.976-100.545 6.36-21.374 12.676-42.762 19.053-64.976M1119 246.491 1103.467 201h-47.086c-8.015 0-8.02.001-10.355-7.505-.087-.277.081-.632.176-1.244 1.231-.39 2.558-.987 3.946-1.225 23.5-4.024 43.67-13.813 58.531-33.16 10.99-14.308 16.893-30.44 17.19-48.387.126-7.65-.918-15.359-1.913-22.978-3.098-23.74-15.006-42.926-33.052-57.779-19.917-16.392-44.106-23.063-69.417-23.507-44.142-.773-88.307-.217-132.462-.205-1.272 0-2.543.145-3.766.219v314.513h71.854V211c23.356 0 46.319-.053 69.28.151 1.213.011 3.037 1.997 3.518 3.421a15159.4 15159.4 0 0 1 34 101.765c.929 2.814 2.06 3.763 5.047 3.738 18.161-.15 36.324-.075 54.486-.075h21.016c-8.61-24.616-17.016-48.654-25.46-73.509m253.028 371.653c.256.426.617.822.752 1.283 6.09 20.781 12.184 41.562 18.207 62.363.769 2.655 2.245 3.315 4.95 3.284 13.993-.16 27.989-.074 41.984-.074h31.111c-.156-1.195-.131-2.04-.385-2.788-8.194-24.133-16.496-48.23-24.615-72.387-15.732-46.81-31.373-93.652-47.035-140.486-10.68-31.937-21.368-63.87-31.925-95.848-.858-2.599-1.915-3.561-4.704-3.552-30.323.098-60.646.086-90.969.018-2.698-.006-3.791.745-4.722 3.55-12.43 37.433-25.126 74.779-37.675 112.174-17.087 50.921-34.091 101.87-51.158 152.8-5.174 15.436-10.435 30.843-15.7 46.393h77.553l20.62-68.874c37.193 0 73.844-.01 110.494.053 1.06.002 2.12.787 3.217 2.091M2056.5 370h-136.223v314.727h216.447v-58.88h-144.446V556.84h116.44v-59.008h-116.432v-69.005h144.426V370H2056.5m-386-365h-77.211v59H1707.993c8.095 0 9.3 1.225 9.578 9.728-15.06 2.316-29.42 6.638-42.275 14.743v231.231h70.892V63.818h81.519V5H1670.5M648.627 566c-5.832.675-11.673 1.277-17.493 2.04-12.252 1.608-24.48 3.4-36.743 4.928-9.392 1.17-18.837 1.919-28.23 3.088-12.262 1.528-24.48 3.413-36.745 4.908-12.31 1.5-24.67 2.57-36.977 4.09-11.935 1.475-23.814 3.398-35.745 4.912-11.445 1.452-22.925 2.631-34.398 3.931 1.959 11.289 3.84 22.085 5.7 32.884.697 4.04.865 8.309 7.061 7.37 2.107-.319 4.414.778 6.642 1.16 13.084 2.24 26.165 4.499 39.26 6.677 10.87 1.809 21.764 3.472 32.634 5.28 11.176 1.86 22.33 3.85 33.505 5.722 10.865 1.82 21.75 3.53 32.615 5.346 13.093 2.19 26.17 4.475 39.265 6.653 10.87 1.808 21.762 3.48 32.632 5.288 11.176 1.86 22.337 3.82 33.507 5.72 11.012 1.876 22.022 3.768 33.045 5.585 5.825.96 11.674 1.78 17.565 2.67v-128.25c-2.083 0-3.916-.17-5.709.029-8.421.935-16.833 1.96-25.246 2.975-8.248.994-16.497 1.984-24.738 3.03-10.168 1.292-20.328 2.64-31.407 3.964M1249.941 5.748c-1.57-.25-3.138-.703-4.71-.714-9.332-.068-18.665-.034-27.998-.034h-39.024v314.787h71.787c0-104.5 0-208.786-.055-314.039z"></path>
  <path d="M1 193.438c26.953-12.898 53.923-25.319 80.849-37.837 11.657-5.42 23.179-11.129 34.834-16.552 28.385-13.21 56.813-26.327 85.22-39.486 17.487-8.1 34.958-16.23 52.453-24.311 27.11-12.522 54.25-24.978 81.347-37.528 18.364-8.506 36.655-17.17 55.022-25.672 6.84-3.166 13.736-6.236 20.75-8.982 1.841-.721 4.326-.494 6.335.011 46.011 11.568 91.965 23.363 137.996 34.85 55.412 13.83 110.889 27.398 166.326 41.129 4.499 1.114 10.713 1.304 12.864 4.282 2.33 3.227.981 9.219.982 14.005.027 134.33-.004 268.66.123 402.991.005 5.028-1.006 6.522-6.47 6.912-11.974.853-23.834 3.189-35.77 4.686-9.558 1.2-19.176 1.925-28.738 3.101-9.354 1.151-18.656 2.712-28.006 3.899-9.065 1.15-18.16 2.057-27.243 3.06-2.238.248-4.48.458-8.035.818l-53.217-301.418-24.55 10.904c.721 9.36 1.38 18.813 2.203 28.25.424 4.87 1.297 9.702 1.69 14.573.78 9.66 1.28 19.344 2.055 29.006 1.26 15.68 2.628 31.35 3.99 47.022.963 11.092 2.015 22.176 2.985 33.267 1.356 15.506 2.661 31.015 4.01 46.521.98 11.257 2.007 22.51 2.994 33.767 1.344 15.34 2.613 30.686 4.035 46.018.45 4.848 1.218 9.671 1.973 14.485.44 2.81-.649 4.447-3.382 4.752-9.575 1.07-19.181 1.881-28.74 3.078-11.935 1.493-23.822 3.372-35.755 4.893-9.229 1.176-18.506 1.966-27.741 3.093-9.687 1.18-19.345 2.597-29.026 3.828-3.547.451-7.123.666-11.416 1.054l-48.55-275.412c-6.004 2.56-11.88 5.339-17.955 7.574-5.337 1.964-7.107 4.296-5.772 10.679 1.934 9.239 1.509 18.953 2.367 28.44 1.178 13.02 2.64 26.014 3.925 39.026.435 4.409.705 8.834 1.036 13.253 1.005 13.422 1.93 26.85 3.023 40.264 1.25 15.348 2.647 30.683 3.98 46.024l4 46.02c1.334 15.341 2.653 30.683 4.026 46.02.11 1.235.585 2.437 1.012 4.14l-134.774 16.56-44.167-250.483-24.48 10.802c1.122 14.505 2.2 29.13 3.397 43.744 1.27 15.512 2.637 31.017 3.993 46.522.97 11.091 2.016 22.176 2.987 33.267 1.356 15.505 2.661 31.015 4.01 46.52.98 11.258 1.925 22.518 3.015 33.765 1.243 12.836 2.597 25.661 3.98 38.483.323 2.996-1.596 3.607-3.778 3.86-14.743 1.71-29.505 3.264-44.237 5.061-9.344 1.14-18.632 2.737-27.984 3.778-1.214.135-3.533-1.599-3.874-2.863-10.143-37.537-20.231-75.09-30.05-112.713-9.864-37.794-19.33-75.692-29.156-113.497-9.863-37.947-19.952-75.835-29.95-113.747-3.315-12.576-6.617-25.156-10.039-37.703-.313-1.15-1.456-2.074-2.573-3.197C1 197.958 1 195.917 1 193.438zM1459.531 1c7.403 1.666 14.368 3.212 21.264 5.022 18.902 4.96 36.087 13.336 51.398 25.61 17.784 14.258 30.98 32.02 40.379 52.597 5.62 12.305 9.007 25.332 11.561 38.672 3.64 19.007 3.56 38.172 2.63 57.231-1.034 21.174-5.502 41.793-14.457 61.358-6.879 15.03-15.68 28.713-27.01 40.523-19.56 20.387-43.714 33.006-71.265 38.876-8.081 1.722-16.423 2.555-24.688 2.994-9.474.504-19.053.785-28.482-.037-14.802-1.29-29.23-4.735-43.031-10.467-17.603-7.31-33.243-17.584-46.327-31.453-14.017-14.858-24.728-31.852-31.494-51.22-4.647-13.302-8.128-26.865-9.005-40.991-.703-11.33-2.24-22.696-1.825-33.987 1.018-27.673 5.215-54.87 18.957-79.469 5.481-9.812 12.3-18.952 19.153-27.906 11.715-15.304 27.545-25.5 44.653-33.741 12.373-5.96 25.44-9.894 39.12-11.636 1.908-.243 3.777-.797 5.801-1.591C1431.021 1 1445.042 1 1459.531 1m20.411 75.427c-5.026-2.486-9.903-5.359-15.11-7.38-11.534-4.475-23.51-6.678-35.811-3.973-8.113 1.784-16.67 3.086-23.971 6.725-18.709 9.325-29.546 25.615-36.064 45.045-5.715 17.035-6.256 34.63-6.07 52.382.141 13.47 1.887 26.627 6.144 39.361 5.265 15.75 13.3 29.591 27.298 39.515 16.47 11.679 34.535 14.674 54.163 11.973 20.118-2.77 35.267-12.916 46.54-29.495 11.587-17.042 15.651-36.467 16.692-56.424.657-12.596-.413-25.398-1.895-37.967-2.789-23.647-11.924-44.268-31.916-59.762zM995.469 689c-3.027-.999-5.504-2.447-8.156-2.927-22.948-4.146-43.531-13.385-61.745-27.973-16.32-13.071-28.81-29.19-37.857-47.927-6.807-14.098-11.136-28.963-13.887-44.464-3.233-18.215-3.478-36.514-2.608-54.76.908-19.078 4.805-37.815 12.097-55.623 7.892-19.27 18.695-36.718 33.974-51.045 19.38-18.174 41.895-30.705 68.259-35.145 12.85-2.164 25.986-4.145 38.943-3.873 32.61.684 62.824 9.864 88.635 30.508 20.77 16.611 34.02 38.372 40.783 64.043 1.095 4.16 1.44 8.516 2.171 13.018-1.178.07-1.989.161-2.8.162-22.164.007-44.328-.039-66.492.064-2.686.012-3.916-.709-4.862-3.38-8.128-22.957-24.128-36.23-48.45-39.784-15.44-2.257-30.394-1.063-44.358 5.666-17.235 8.305-28.899 22.23-36.083 39.86-4.793 11.76-6.977 24.038-8.224 36.722-2.178 22.155-.324 43.77 7.343 64.541 8.705 23.586 24.335 40.59 49.718 46.715 19.419 4.686 38.53 3.378 56.5-5.414 20.237-9.902 29.65-27.125 30.975-49.705h-64.001V514.34h133.374c.08 1.003.267 2.262.269 3.52.021 13.332.207 26.667-.027 39.995-.5 28.419-6.745 55.132-23.789 78.602-14.292 19.68-32.816 33.74-55.432 42.543-12.402 4.828-25.265 7.673-38.593 9.608-15.167.392-30.188.392-45.677.392zM2265.469 689c-2.062-4.086-6.101-2.304-8.687-2.761-27.695-4.902-52.218-15.751-70.545-37.708-10.696-12.814-17.033-27.936-19.227-44.617-.934-7.091-1.738-14.2-2.645-21.656h69.274c1.102 4.46 2.124 8.974 3.335 13.436 3.97 14.624 14.394 22.95 27.813 28.32 11.297 4.52 23.163 5.858 35.092 4.845 13.319-1.132 26.016-4.21 36.177-14.267 14.25-14.102 11.612-35.366-7.49-45.426-12.501-6.583-26.087-9.797-39.644-13.187-19.31-4.83-39.017-8.289-57.513-16.005-18.666-7.786-35.71-17.905-47.137-35.292-6.107-9.292-8.985-19.7-10.434-30.791-1.904-14.576-.44-28.628 4.218-42.374 5.377-15.867 15.645-28.146 28.452-38.789 15.841-13.166 34.448-19.815 53.996-24.404 6.149-1.443 12.59-1.732 18.92-2.282 6.069-.528 12.19-1.223 18.247-.943 16.396.757 32.655 2.456 48.374 7.82 18.052 6.161 33.95 15.69 46.354 30.164 10.401 12.138 17.632 26.1 19.62 42.327.691 5.654 1.554 11.287 2.379 17.22-1.573.154-2.684.355-3.795.356-20.497.019-40.994-.036-61.49.071-2.832.015-4.637-.427-5.138-3.612-3.154-20.049-15.575-28.224-31.133-32.222-15.21-3.908-30.712-3.168-45.497 2.835-14.474 5.877-24.664 21.106-18.344 37.1 3.93 9.946 11.99 15.792 21.59 18.673 18.596 5.58 37.43 10.406 56.274 15.105 21.386 5.334 42.108 12.409 59.442 26.317 15.131 12.14 26.085 27.36 29.841 47.235 3.173 16.782 2.782 33.374-2.487 49.316-3.065 9.273-8.277 18.313-14.344 26.026-15.92 20.243-38.135 30.19-62.856 35.148-6.35 1.273-12.775 2.168-19.314 3.63-17.168.392-34.189.392-51.678.392zM2452 392.75c-3.811 4.37-6.716 9.313-12.93 10.834-8.101 1.983-20.717-3.136-21.058-15.01-.261-9.063 4.2-16.165 11.439-18.42 7.797-2.43 14.92.405 20.282 8.08.452.647.849 1.333.974 2.545-2.89 5.407-2.322 9.224 1.293 11.221v.75m-23.354-14.772 4.98.022c7.58.033 9.407 2.732 7.185 9.907-.397 1.282.733 3.106 1.369 4.59.148.346 1.546.626 1.703.423.821-1.064 1.84-2.23 2.035-3.477.746-4.77-.116-9.352-4.36-12.125-4.455-2.913-9.273-3.397-14.29.868-5.878 6.622-5.635 13.455.47 15.399 0-5.273 0-10.57.908-15.607m7.313 13.71-2.79-2.184-.282 5.363-4.94.328c5.075 3.904 9.383 3.863 13.174.709-1.602-1.062-3.361-2.23-5.162-4.217z"></path>
  <path d="M2452 391.542c-3.615-1.54-4.184-5.356-1.24-10.404.349-.186.794-.167 1.017-.153.223 3.376.223 6.738.223 10.557zM1778.021 497.055a12211.388 12211.388 0 0 1-19.032 64.56c-9.975 33.52-19.977 67.031-29.976 100.544-1.927 6.458-4.105 12.851-5.747 19.38-.656 2.603-1.61 3.513-4.244 3.504-21.664-.076-43.329.013-64.991-.177-1.346-.012-3.495-1.706-3.889-3.029-6.18-20.767-12.165-41.593-18.13-62.424-4.727-16.51-9.325-33.058-14.053-49.569a49943.044 49943.044 0 0 0-27.001-93.928c-2.402-8.327-4.725-16.688-7.516-24.887-2.068-6.073-.03-5.118-9.271-4.848v238.524h-70.879V370.23c1.317-.073 2.75-.22 4.184-.22 36.996-.013 73.992.059 110.987-.112 3.863-.018 5.536 1.291 6.518 4.79 7.807 27.816 15.716 55.604 23.588 83.401 9.841 34.75 19.658 69.507 29.536 104.247 1.66 5.84 3.575 11.606 5.374 17.414 4.378.915 6.479.105 7.944-5.202 8.413-30.469 17.62-60.717 26.392-91.089 8.73-30.223 17.276-60.499 25.872-90.76 1.844-6.49 3.397-13.067 5.46-19.483.431-1.344 2.51-3.077 3.836-3.082 39.141-.165 78.283-.134 117.721-.134v314.698h-71.507V446.405c-4.067-.86-6.119-.753-7.41 4.126-4.099 15.497-9.095 30.756-13.766 46.524zM1119.019 246.9c8.425 24.446 16.832 48.484 25.441 73.1h-21.016c-18.162 0-36.325-.075-54.486.075-2.988.025-4.118-.924-5.047-3.738a15159.4 15159.4 0 0 0-34-101.765c-.481-1.424-2.305-3.41-3.518-3.42-22.961-.205-45.924-.152-69.28-.152v108.742h-71.854V5.23c1.223-.074 2.494-.219 3.766-.22 44.155-.01 88.32-.567 132.462.206 25.311.444 49.5 7.115 69.417 23.507 18.046 14.853 29.954 34.039 33.052 57.78.995 7.618 2.039 15.328 1.912 22.977-.296 17.948-6.2 34.08-17.189 48.387-14.861 19.347-35.032 29.136-58.531 33.16-1.388.238-2.715.834-3.946 1.225-.095.612-.263.967-.176 1.244 2.336 7.506 2.34 7.505 10.355 7.505h47.086c5.202 15.234 10.367 30.363 15.552 45.9m-93.442-101.852c4.328-2.374 9.117-4.18 12.887-7.24 7.729-6.275 11.413-14.69 12.757-24.752 1.804-13.499-1.71-24.839-10.522-34.857-8.637-9.819-20.54-13.13-32.583-13.919-16.854-1.104-33.835-.278-50.754-.278V150c11.68 0 22.996-.023 34.313.007 11.295.03 22.44-1.014 33.902-4.959zM1372.009 617.702c-1.079-.862-2.138-1.647-3.198-1.65-36.65-.062-73.301-.052-110.495-.052l-20.619 68.874h-77.553c5.265-15.55 10.526-30.957 15.7-46.394 17.067-50.928 34.071-101.878 51.158-152.8 12.549-37.394 25.245-74.74 37.675-112.174.931-2.804 2.024-3.555 4.722-3.549 30.323.068 60.646.08 90.97-.018 2.788-.009 3.845.953 4.703 3.552 10.557 31.978 21.245 63.911 31.925 95.848 15.662 46.834 31.303 93.675 47.035 140.486 8.12 24.158 16.42 48.254 24.615 72.387.254.749.229 1.593.385 2.788h-31.11c-13.996 0-27.992-.085-41.986.074-2.704.03-4.18-.63-4.95-3.284-6.022-20.801-12.115-41.582-18.206-62.363-.135-.461-.496-.857-.771-1.725m-90.047-80.399-7.107 22.537h79.825c-10.62-35.872-21.359-71.515-31.586-107.305-1.692-5.92-4.51-7.17-9.91-6.649-3.133.303-4.699.45-5.491 4.376-1.548 7.667-4.444 15.058-6.7 22.587-6.353 21.2-12.665 42.414-19.031 64.454zM2057 370h79.712v58.828h-144.426v69.005h116.432v59.008h-116.44v69.006h144.446v58.88h-216.447V370H2057zM1671 5h156.707v58.818h-81.519v255.884h-70.892V88.472c12.855-8.106 27.214-12.428 42.275-14.742-.278-8.505-1.483-9.73-9.578-9.73H1593.29V5H1671zM649.085 566c10.621-1.324 20.781-2.672 30.949-3.963 8.241-1.047 16.49-2.037 24.738-3.031 8.413-1.015 16.825-2.04 25.246-2.975 1.793-.2 3.626-.03 5.709-.03v128.251c-5.89-.89-11.74-1.71-17.565-2.67-11.023-1.817-22.033-3.71-33.045-5.584-11.17-1.902-22.33-3.861-33.507-5.72-10.87-1.809-21.762-3.48-32.632-5.289-13.095-2.178-26.172-4.464-39.265-6.653-10.866-1.816-21.75-3.526-32.615-5.346-11.174-1.871-22.329-3.862-33.505-5.722-10.87-1.808-21.764-3.471-32.634-5.28-13.095-2.178-26.176-4.436-39.26-6.677-2.228-.382-4.535-1.479-6.642-1.16-6.196.939-6.364-3.33-7.06-7.37-1.861-10.8-3.742-21.595-5.7-32.884 11.472-1.3 22.952-2.479 34.397-3.931 11.93-1.514 23.81-3.437 35.745-4.912 12.306-1.52 24.668-2.59 36.977-4.09 12.265-1.495 24.483-3.38 36.745-4.908 9.393-1.17 18.838-1.919 28.23-3.088 12.262-1.527 24.491-3.32 36.743-4.927 5.82-.764 11.661-1.366 17.95-2.04zM1249.968 6.232c.028 104.77.028 209.056.028 313.555h-71.787V5h39.024c9.333 0 18.666-.034 27.998.034 1.572.011 3.14.465 4.737 1.198z"></path>
  <path fill="none" d="M1480.194 76.696c19.74 15.225 28.875 35.846 31.664 59.493 1.482 12.57 2.552 25.37 1.895 37.967-1.04 19.957-5.105 39.382-16.693 56.424-11.272 16.579-26.421 26.725-46.54 29.495-19.627 2.701-37.692-.294-54.162-11.973-13.997-9.924-22.033-23.766-27.298-39.515-4.257-12.734-6.003-25.89-6.144-39.36-.186-17.753.355-35.348 6.07-52.383 6.518-19.43 17.355-35.72 36.064-45.045 7.3-3.639 15.858-4.94 23.97-6.725 12.303-2.705 24.278-.502 35.812 3.973 5.207 2.021 10.084 4.894 15.362 7.65zM2427.875 377.859c4.41-3.938 9.228-3.454 13.683-.541 4.244 2.773 5.106 7.354 4.36 12.125-.195 1.248-1.214 2.413-2.035 3.477-.157.203-1.555-.077-1.703-.424-.636-1.483-1.766-3.307-1.369-4.589 2.222-7.175.395-9.874-7.186-9.907-1.66-.007-3.32-.014-5.4-.114-.423-.093-.35-.027-.35-.027zM2427.77 377.756c-.031 5.26-.031 10.556-.031 15.829-6.106-1.944-6.35-8.777-.167-15.563.303-.163.23-.23.199-.266zM2435.98 392.098c1.78 1.577 3.54 2.744 5.14 3.806-3.79 3.154-8.098 3.195-13.173-.709l4.94-.328.281-5.363c1.239.969 2.015 1.576 2.811 2.594zM1025.261 145.308c-11.146 3.685-22.291 4.728-33.586 4.699-11.317-.03-22.634-.007-34.313-.007V64.002c16.92 0 33.9-.826 50.754.278 12.043.79 23.946 4.1 32.583 13.92 8.811 10.017 12.326 21.357 10.522 34.856-1.344 10.062-5.028 18.477-12.757 24.751-3.77 3.061-8.56 4.867-13.203 7.501zM1281.981 536.887a11818.56 11818.56 0 0 1 19.012-64.038c2.256-7.53 5.152-14.92 6.7-22.587.792-3.927 2.358-4.073 5.492-4.376 5.398-.522 8.217.73 9.909 6.65 10.227 35.789 20.966 71.432 31.586 107.304h-79.825c2.415-7.657 4.76-15.097 7.126-22.953z"></path>
</svg>