  <svg width="119" height="37" viewBox="0 0 119 37" fill="currentcolor" xmlns="http://www.w3.org/2000/svg">
    <path d="M17.7326 13.9284C17.7326 15.9371 16.0784 17.5912 14.0698 17.5912C12.0611 17.5912 10.407 15.9371 10.407 13.9284C10.407 11.9198 12.0611 10.2656 14.0698 10.2656C16.0784 10.2656 17.7326 11.9198 17.7326 13.9284ZM14.0698 19.0091C12.0611 19.0091 10.407 20.6633 10.407 22.6719C10.407 24.6805 12.0611 26.3347 14.0698 26.3347C16.0784 26.3347 17.7326 24.6805 17.7326 22.6719C17.7326 20.6633 16.0784 19.0091 14.0698 19.0091ZM36.1648 18.3002C36.1648 28.107 28.2484 36.0234 18.4415 36.0234C8.63465 36.0234 0.718262 28.107 0.718262 18.3002C0.718262 8.49329 8.63465 0.576904 18.4415 0.576904C28.2484 0.576904 36.1648 8.49329 36.1648 18.3002ZM31.4386 18.3002C31.4386 11.0927 25.649 5.3031 18.4415 5.3031C11.2341 5.3031 5.44446 11.0927 5.44446 18.3002C5.44446 25.5076 11.2341 31.2972 18.4415 31.2972C25.649 31.2972 31.4386 25.5076 31.4386 18.3002ZM22.8132 19.0091C20.8046 19.0091 19.1504 20.6633 19.1504 22.6719C19.1504 24.6805 20.8046 26.3347 22.8132 26.3347C24.8219 26.3347 26.4761 24.6805 26.4761 22.6719C26.4761 20.6633 24.8219 19.0091 22.8132 19.0091ZM22.8132 10.2656C20.8046 10.2656 19.1504 11.9198 19.1504 13.9284C19.1504 15.9371 20.8046 17.5912 22.8132 17.5912C24.8219 17.5912 26.4761 15.9371 26.4761 13.9284C26.4761 11.9198 24.8219 10.2656 22.8132 10.2656ZM83.7812 7.54805C83.8994 7.54805 84.0175 7.6662 84.1357 7.78436V11.5653C84.1357 11.8016 83.8994 11.9198 83.7812 11.9198H77.519C77.2827 11.9198 77.1645 11.6835 77.1645 11.5653V7.90251C77.1645 7.6662 77.4009 7.54805 77.519 7.54805H83.7812ZM83.6631 12.865H71.6113C71.4931 12.865 71.2568 12.9832 71.2568 13.2195L69.7208 19.1272L69.6026 19.4817L67.7122 13.2195C67.7122 13.1013 67.4758 12.865 67.3577 12.865H62.6315C62.5133 12.865 62.277 12.9832 62.277 13.2195L60.5047 19.1272L60.3865 19.4817L60.2684 19.1272L59.5595 16.1734L58.8505 13.2195C58.8505 13.1013 58.6142 12.865 58.4961 12.865H49.0437V7.78436C49.0437 7.6662 48.8073 7.4299 48.571 7.54805L42.6633 9.43853C42.427 9.43853 42.3088 9.55669 42.3088 9.793V12.9832H40.7728C40.6547 12.9832 40.4183 13.1013 40.4183 13.3376V17.8275C40.4183 17.9457 40.5365 18.182 40.7728 18.182H42.3088V23.7353C42.3088 27.6344 44.4356 29.4067 48.3347 29.4067C49.9889 29.4067 51.5249 29.0523 52.5883 28.4615V23.7353C52.5883 23.499 52.352 23.3808 52.2338 23.499C51.6431 23.7353 51.0523 23.8534 50.5797 23.8534C49.5163 23.8534 48.9255 23.3808 48.9255 22.1993V18.182H52.352C52.4702 18.182 52.7065 18.0638 52.7065 17.8275V14.0466L57.1964 28.9341C57.1964 29.0523 57.4327 29.2886 57.5508 29.2886H62.5133C62.6315 29.2886 62.8678 29.1704 62.8678 28.9341L64.9946 22.3174L66.058 25.7439L67.0032 28.9341C67.0032 29.0523 67.2395 29.2886 67.3577 29.2886H72.3202C72.4383 29.2886 72.6747 29.1704 72.6747 28.9341L77.1645 14.0466V28.9341C77.1645 29.0523 77.2827 29.2886 77.519 29.2886H83.5449C83.6631 29.2886 83.8994 29.1704 83.8994 28.9341V13.2195C83.8994 13.1013 83.7812 12.865 83.6631 12.865ZM91.5795 7.54805H85.5536C85.4354 7.54805 85.1991 7.6662 85.1991 7.90251V28.816C85.1991 28.9341 85.3172 29.1704 85.5536 29.1704H91.5795C91.6976 29.1704 91.9339 29.0523 91.9339 28.816V7.78436C91.9339 7.6662 91.8158 7.54805 91.5795 7.54805ZM99.614 7.54805H93.3518C93.2336 7.54805 92.9973 7.6662 92.9973 7.90251V11.5653C92.9973 11.6835 93.1155 11.9198 93.3518 11.9198H99.614C99.7321 11.9198 99.9685 11.8016 99.9685 11.5653V7.78436C99.9685 7.6662 99.8503 7.54805 99.614 7.54805ZM99.4958 12.865H93.4699C93.3518 12.865 93.1155 12.9832 93.1155 13.2195V28.6978C93.1155 28.816 93.2336 29.0523 93.4699 29.0523H99.4958C99.614 29.0523 99.8503 28.9341 99.8503 28.6978V13.2195C99.8503 13.1013 99.7322 12.865 99.4958 12.865ZM118.519 20.8996C118.519 25.3895 114.738 29.2886 109.421 29.2886C104.222 29.2886 100.441 25.3895 100.441 20.8996C100.441 16.4097 104.222 12.5106 109.539 12.5106C114.738 12.5106 118.519 16.4097 118.519 20.8996ZM112.138 21.0177C112.138 19.3636 110.957 18.0638 109.539 18.182C108.003 18.182 106.94 19.4817 106.94 21.0177C106.94 22.5537 108.121 23.8534 109.539 23.8534C111.075 23.8534 112.138 22.5537 112.138 21.0177Z" />
  </svg>