<svg xmlns="http://www.w3.org/2000/svg" width="130" height="143.81642512077295" viewBox="0 0 207 229" fill="currentcolor">
  <path d="M83 223c2 0 5 0 7-4l-2-12c-1-11 4-22 8-22s7 3 7 8c1 15-4 21-6 26 0 2 4 5 7 5l3-1-1-3c0-9 6-16 10-16s6 5 6 8c0 4-3 7-8 10l4 2c7 0 10-8 13-16 0-1 1-3 3-3 3 0 4 18 9 18 2 0 3-4 3-7l-1-6c0-4 3-7 5-7s2 2 2 4c0 7-5 21-13 21-6 0-6-10-8-10s-5 11-17 11l-6-3c-3 2-5 2-8 2-4 0-6-4-8-4s-4 5-11 5c-6 0-7-8-9-8s-5 8-8 8c-5 0-6-14-10-14s-14 14-17 13c-2 0-2-1-2-2l2-8 3-9 2-2 1 2 3 6c1 0 7-11 10-11 4 0 4 17 10 17 2 0 3-2 4-5 0-4 1-10 5-10 2 0 4 5 2 10 0 6 4 7 6 7m95-14c-1 6-6 15-12 15-2 0-5 0-5-2s11-2 11-10c0-3-3-7-7-7-5 0-11 6-11 14 0 7 5 10 9 10 8 0 13-7 15-12 2 3 2 12 5 12 2 0 2-1 4-4 3-8 7-17 12-17 1 0 0 3 5 3 2 0 3-2 3-4s-2-5-6-5c-11 0-14 17-16 17-3 0-2-13-4-13s-3 2-3 3m-79-12c0-4-1-5-2-5-3 0-4 7-3 15l1 6c2 0 5-9 4-16m-19-7c0-2-2-4-4-4s-4 3-4 6c0 2 2 3 4 3s4-3 4-5m37 24l-2-4c-1 0-4 1-4 5 0 3 1 4 2 5 3-1 4-4 4-6m46-4c3 0 4 3 3 5l-6 4c-1-2-1-9 3-9m-136-9l-2-5c-1-4 2-7 3-7 3-1 3 0 4 3l1 16c0 9-5 21-17 21-11 0-15-7-16-17 0-5 0-10 2-17 1-4 2-5 6-6 2 0 2 3 1 6-1 7-2 10-1 18 0 9 4 12 9 12 6 0 9-5 10-13v-11M167 47c1 6 10 14 12 14s2-8 2-14c0-4 1-6-1-7-3 6-11 7-13 7m0-3c7 0 13-5 13-10 0-2-1-4-4-4l1 2c0 4-5 7-11 7-2 0-3 2-3 3l4 2m-1-7l-3-1-1-4h3l7-2c2 0 2 1 2 2 0 3-5 5-8 5M25 86c2 0 2-13 5-13l1 2-1 10 1 1c1 0 4-14 6-14l1 2-3 14v1c2 0 5-7 6-11l2-2 1 2-6 17c-2 4-5 10-5 13l2 6c-4-1-5-1-7-4-7 13 13 12 6 24-1-2-11-4-11-17 0-11 10-17 10-22l-1-2c-2-2-2-3-4-3-1 0-3 3-1 5l1 2c0 2-3 7-5 7s-3-5-3-13c0-7 1-14 3-14l1 1v5l1 3"></path><path d="M41 105c3 0 5-2 5-6v-7c0-2 0-5 2-7l-1 3c0 5 3 9 3 14 0 2 0 3-2 3l-1-1-1 1c0 2 1 4 4 4 2 0 4-2 4-5 0-5-5-12-5-18l2-6c0 13 10 22 10 27 0 2-1 3-2 3l-2-2v-1c-1 0-2 1-2 3s2 4 5 4c4 0 6-3 6-5 0-7-13-17-13-28l1-7c-8 6-11 13-11 19 0 5 0 8-3 8l-2-1v1c0 3 1 4 3 4M150 42c3 0 5-1 5-2h-1l-6-1-5-2-1 1c0 1 4 4 8 4m-14-8c1-1 5 0 9-2h2l4 2 4-1c2 0 5 6 5 8 0 4-5 6-11 6-8 0-13-8-13-12v-1M42 129c-2 0-5 3-5 9s6 15 17 15c10 0 12-6 12-10 0-10-6-17-14-17-4 0-8 4-8 8s4 10 11 10c4 0 6-2 6-5s-3-7-7-7l-2 2c0 2 3 3 5 3h1l1 1-4 2c-3 0-6-2-6-6 0-2 2-4 5-4 5 0 9 5 9 10 0 4-3 7-8 7-10 0-15-9-13-18"></path><path d="M109 153c0 1 1 3 3 3a3 3 0 000-6c-2 0-3 2-3 3m5 13l4-1 1 1c0 2-3 3-9 3-3 0-5-1-5-3-3 2-8 4-13 4-13 0-16-6-20-8-3-1-8 2-15-6h3c6 0 9-2 9-7v-2c2 1 6 4 7 9l4 2c3 0 5-1 6-5 7-1 13-5 14-11l6 5 4-1 7 1 1-1c2 0 2 2 2 3l2 2-1 2h-1c-1 0-1 9-7 9-4 0-7-3-9-7l-2-2-3 1c-3 4-9 7-16 7h-4c0 1 2 2 6 2 12 0 14-6 16-6l1 1c3 6 9 8 12 8M152 125c-1 0-8 10-13 10l-2-4 3-1c10-3 8-11 17-11 5 0 11 3 11 11 0 9-12 19-14 19-1 0-3-2-3-4l2-1c6-3 9-8 9-11l-1-1c-1 0-5 10-11 10-3 0-7-3-7-4 0-3 11-8 11-11l-2-2m7-3c-1 0-2 0-2 2s2 3 3 3l2 1 3-2c0-2-3-4-6-4M42 49l2 2 3-2c0-2-2-3-3-3s-2 1-2 3m-4-6c0 1 1 2 3 2l2-2-2-3c-2 0-3 2-3 3m-2 17c-1 1-4 2-4 5s1 4 3 4h3c-2-2-2-4-2-6v-3m-15 1l-1 1c0 3 2 5 4 5s4-1 5-3h-2c-2 0-5-1-6-3m-3 6c0 4 2 7 4 7l8-4h-6c-2 0-4 0-6-3m17-26v-3c0-3-1-8-5-8-3 0-5 2-5 4 0 5 5 7 10 7m-6 16c-2 0-4-2-4-5l2-2c0 3 2 5 4 6h1l-3 1m6-7l2 1-2 2c-2 0-4-3-4-5l2-1h1l1 3m-15 7v1l1 1h1l6 1 5-1c5-2 7-8 7-9l-2-2-1-3h-4c-2 0-4 0-7 2-6 3-5 9-6 10m21-2c-1 2-3 4-3 7 0 4 2 6 6 6 3 0 4-2 4-5 0-4-4-7-7-8M28 43l-4 1c-3 0-5-2-5-5 0-2 1-4 3-5v1c0 4 2 7 6 8M139 64l2 2c2 0 3-1 3-2 0-2-1-3-3-3-1 0-2 1-2 3m0 8a3 3 0 106 0 3 3 0 00-6 0m-9 5a4 4 0 009 0 4 4 0 00-9 0m2-9a3 3 0 005 0l-2-2c-2 0-3 1-3 2m-8 5a3 3 0 005 0l-2-2c-2 0-3 1-3 2m7-15c0 3 1 5 4 5 2 0 4-2 4-5 0-2-2-4-4-4-3 0-4 2-4 4m4-7a2 2 0 105 0 2 2 0 00-5 0m-11 6a2 2 0 105 0 2 2 0 00-5 0m0 8c0 2 1 4 3 4s4-2 4-4-2-4-4-4-3 2-3 4m-8 4c0 2 1 4 3 4s4-2 4-4-2-4-4-4-3 2-3 4m2-9c0 2 1 3 2 3 2 0 3-1 3-3 0-1-1-2-3-2l-2 2m22 20c0-2 1-3 2-3a2 2 0 110 5l-2-2M141 152l1 1c0 2 0 4-3 5-1 1-3 2-7 2l1-5v-1h1c5 0 7-2 7-2m1-6l1-2v-2c0-1-3-2-7-2-5 0-7 2-7 3v2c0 2 3 3 6 3l7-2m3 0c-1 2-5 5-12 5-3 0-5-2-5-2l-2 2c-2 2-3 5-3 9 0 2 1 5 5 5 12 0 21-8 21-14 0-3-2-5-4-5M147 93c0 2 1 4 3 4l2-4v-6l3 2 3-2h1l-2 4 4 2-6 1-3 3c0 2 2 2 3 2 5 0 8-2 8-2h1l-2 4c0 1 4 2 3 3h-3-1l-1 4c-1 0-3-8-8-8l-1 2c0 2 3 5 5 7l3 1-4 2v4l-4-3-3 2 2-8c0-2 0-5-2-5-1 0-3 2-4 5l-1 6c-1 0 0-3-2-3l-3 1h-1l2-3-4-2 3-1c3-1 8-3 8-6 0-4-3-6-6-7l-2-2 2-1h2v-3-1l3 3 3-3 1 1-2 7m-30-18c1 5 8 3 8 9v4l1 2 2-2-1-2c0-3 2-3 3-3l8 2c-1 4-10 3-10 8 0 2 3 2 4 2l2-1v-2c2 0 8 5 8 6 0 2-7 3-9 3h-1l2-3-4-1-2 1 3 6c0 1-1 2-3 2s-4-2-4-4l2-4-1-1c-3 0-3 6-12 7 2-2 3-3 3-6l-1-3c0-2 1-3 3-3s3 3 5 3l1-2c0-5-9-4-9-11l2-7M129 116l2 2 2-2c0-2-2-4-3-4v2l-1 2m-3-8c7 1 10 6 10 10s-2 7-5 7-6-3-6-6l2-8-1-3m-8 10l1 2-1 3c0 2 1 3 3 3s3-1 3-3-3-5-6-5m21-4v2l-1 5c0 3 2 4 4 4 3 0 4-2 4-4 0-4-3-6-7-7m-20-3c3 0 4 1 4 2 0 2-1 2-3 2h-3l-4 1 3 2c0 4-11 1-11 10 0 5 6 11 13 11 4 0 7-2 7-3l-2-1 1-2-1-1c-1 0-3 2-8 2-3 0-7-2-7-5l1-1h1l1-1 1-2c1 0 4 4 12 4 3 0 9 0 11-2 0 7-6 16-17 16-12 0-18-10-18-18 0-10 8-19 19-19l5 2c0 2-4 1-5 3M78 39c5 0 6 4 6 8l-1 4-1-3-1-2-1 5 1 3 2-1c-1 3-3 6-6 6-5 0-7-7-8-11-3 4-7 7-12 7s-8-4-8-8l2-4c2 0 0 6 3 6 1 0 3-1 3-3l1-4c0-2 0-3-2-3l-3 2c2-5 6-7 10-7 5 0 7 4 7 9v2c2-3 5-6 8-6m-4 7l-1-1-2 3 1 3c1 0 2-2 2-5m-9 3l3-3v-2l-1-3c-2 0-3 5-3 7l1 1m10 6c2 0 4-6 4-10l-1-2c-1 0-3 6-3 10v2m-15-4c2 0 4-11 4-13v-1c-2 0-5 11-5 13l1 1"></path><path d="M67 56c-3 0-3 3-3 10-2-5-6-9-9-9s-4 2-4 5v2c0-1 1-2 3-2s6 2 8 5l-7-1-3 1c-2 1-5 3-5 7l1 3c2-5 8-8 11-8l2 1c-2 1-2 4-2 7l-2 1 2 6-1 2 3 6v1l4 4 1 1 3-2-1-1-2-4-1-1-1-5-1-2v-5l-1-1c0-3 2-4 3-7 3 3 4 6 4 8v4c2-2 6-4 6-8 0-2-1-4-8-6l7-1c5 0 7 1 7 4l2-4c0-3-3-5-6-5-4 0-7 2-11 5 2-4 3-6 5-6h1l-5-5M173 101c3 0 6 4 6 9s-3 11-7 15c0-9-11-6-11-12 0-3 2-5 5-5l4 2-1-4c0-2 1-5 4-5M126 37l-3-1c-3 0-5 2-5 3l-1-2c0-3 2-6 7-6 4 0 5 2 6 2h2v1c0 3-1 7-4 9l-3-3v-1l1-2m-9 4l4 3h3l-1 3h2c4 0 8-2 8-8l1 4c0 7-5 10-9 10l-5-1c-2 0-1 2-2 2-2 0-3-3-3-7 0-2 0-4 2-6M63 1h-5c-4 0-3 3-7 3-3 0-2-4-6-4-3 0-5 1-5 2 0 0 3 0 3 2s-6 3-6 4l1 1 5-1 2 1c0 2-4 5-4 6h1c1 0 3-3 5-3 4 0 1 7 3 7s1-7 4-7c2 0 4 5 5 5l1-1-2-5 2-2 4 1 1-1c0-1-5-3-5-5s3-2 3-3m14 7l6 3c1 0 2-1 2-3 0-1-1-2-3-2l-5 2m7 12c0-3-10-10-10-13V6c2-2 9-3 9-5l-2-1c-6 0-15 2-15 5 0 2 8 7 8 9l-1 1-9-2-1 2 3 10c-1 0-7-6-9-6v5l-1 2c-2 0-3-5-4-5-2 0-2 9-4 9-1 0 0-9-2-9s-4 6-5 6l-1-1 1-7-1-1-8 3v-1c0-1 7-6 7-8s-10-1-10-3 7-4 7-6-8-3-11-3c-4 0-6 0-6 2l9 3c0 2-9 5-9 7s12 1 12 2c0 3-11 12-11 15l2 1c3 0 11-6 14-6l1 2-1 6c0 1 0 2 2 2s4-4 6-4 1 12 4 12c2 0 3-13 5-13s3 4 4 4c2 0 1-7 3-7 3 0 9 8 12 8l1-2c0-3-5-10-5-13l1-1 13 4 2-2m-58-3c0 1-4 5-6 5l-1-1 1-4 5-1 1 1m47 6c0 2 8 13 9 13l2-4v-1c-1-2-9-8-11-8M174 4l2 2 1-2-1-2-2 2m-10 14c0-5-11-6-11-7l9-2c-5-6-11-5-11-6l9-2c4 0 8 1 8 4l-1 5c0 2 0 3 2 3s2-2 2-4V5c0-3 2-5 5-5l5 1-2 4c0 2 2 4 2 10 0 10-10 13-21 13l-10-1c0-1 4-1 4-5v-4c1 0 3 3 6 3 1 0 4 0 4-3m10-6c0 5-4 9-11 11h2c9 0 12-4 12-7 0-2-1-4-3-4M170 93l4-9c-2-1-7-3-7-7s5-8 6-8l1 2-1 7 2 4c1 0 4-4 4-8 0-6-6-8-8-8-1 0-4 2-12 2-13 0-16-13-16-19l6 1h7c8 0 11 5 16 12 3 2 9 4 9 12 0 7-7 11-9 19 3 0 5-6 8-6l2 4c0 2-2 6-5 9v-1c0-2 0-4-2-4-4 0-5 3-6 6-2-6-5-12-9-16-5-3-12-1-12-8l1-6-1-2c6 2 4 6 8 10 2 3 9 6 13 17v-2c0-9-13-19-14-22 7 0 9 2 12 12l3 9m-2-31c0-1-3-1-3-5l-1-1c-1 0 0 3-2 3-3 0-4-6-5-6v3l-1 2c-2 0-3-4-5-4l1 3-4 2 1 1 5-1 1 1-2 3h1c1 0 4-3 7-3l1 1-2 4c1 0 3-3 5-3l3 1v-1"></path><path d="M121 25l2 3v1l3-3c1 0 5 4 10 4 8 0 15-6 15-15s-7-15-16-15l-9 2c-1 1-2-2-3-2v2l-1 3c-2 0-8-5-8-3l4 7-4 3c0 1 5 1 5 3s-5 3-5 5l5 1-4 7 1 1 5-4m2-11l-2-3h3l2-3 1 3 3-1 1 1-2 2 4 2-4 1 1 3-3-1-2 3-1-1v-2-1h-3l2-3m13 12c-5 0-8-2-8-3l1-1 6 2-1-4v-1l6 1 1-1-5-5 6-3-7-1 1-3-1-1-5 1-1-1c0-1 3-3 6-3 7 0 10 5 10 12 0 9-6 11-9 11M93 135l-1 2-3-2c-7 0-4 10-11 10l-5-1v1c0 1 2 5 9 5 6 0 12-4 12-9v-2l1-1 3 1 2-1-2-2 1-2-2-2-1 1-2-2-2 1 1 3"></path><path d="M76 138c-2 0-5-2-5-4l2-1c1 0 4 2 4 4l-1 1m-18-15c5 2 8 4 8 8l3 7c1 1 4 3 7 3 2 0 4-1 4-3s-3-7-7-7h-2l-2-1-3-8c-2-3-5-4-8-4-2 0-4 1-4 3l4 2"></path><path d="M90 116c0-3-6-3-6-7l2-5c1 3 2 5 5 6 6 2 6 5 6 8 0 6-4 13-14 13-8 0-14-7-14-13l2-4 2 2c2 2 6 3 10 3s7-2 7-3m0 4c-2 1-3 1-3 3v3l1 1c2 0 6-4 6-7l-1-1-3 1M70 88c0-4 10-6 10-11l-1-3c3 2 6 5 6 7 0 5-5 7-5 9 0 4 5 4 5 8 0 3-5 7-5 11 0 3 3 6 6 6l-3 1c-7 0-13-5-13-12 0-3 1-5 3-7l5 2 1-1c0-2-9-5-9-10M34 120c0 2 2 3 4 3h2c1 2 2 3 5 3 2-1 4-3 3-5v-1c3-1 4-3 4-5s-2-4-4-4l-2 1c-1-2-3-3-5-3s-4 2-4 5l1 1h-1c-2 0-4 2-3 5m11-3a2 2 0 11-4 1 2 2 0 014-1"></path>
</svg>